<?xml version="1.0" encoding="UTF-8" standalone="no"?>
<!-- Created with Inkscape (http://www.inkscape.org/) -->

<svg
   xmlns:dc="http://purl.org/dc/elements/1.1/"
   xmlns:cc="http://creativecommons.org/ns#"
   xmlns:rdf="http://www.w3.org/1999/02/22-rdf-syntax-ns#"
   xmlns:svg="http://www.w3.org/2000/svg"
   xmlns="http://www.w3.org/2000/svg"
   xmlns:sodipodi="http://sodipodi.sourceforge.net/DTD/sodipodi-0.dtd"
   xmlns:inkscape="http://www.inkscape.org/namespaces/inkscape"
   width="1468.9202"
   height="1147.5741"
   viewBox="0 0 388.65179 303.629"
   version="1.1"
   id="svg8"
   inkscape:version="0.92.2 5c3e80d, 2017-08-06"
   sodipodi:docname="geoquizlogo_noglobe.svg">
  <defs
     id="defs2" />
  <sodipodi:namedview
     id="base"
     pagecolor="#ffffff"
     bordercolor="#666666"
     borderopacity="1.0"
     inkscape:pageopacity="0.0"
     inkscape:pageshadow="2"
     inkscape:zoom="0.15854846"
     inkscape:cx="-729.15356"
     inkscape:cy="1100.6261"
     inkscape:document-units="mm"
     inkscape:current-layer="layer2"
     showgrid="false"
     inkscape:lockguides="false"
     fit-margin-top="0"
     fit-margin-left="0"
     fit-margin-right="0"
     fit-margin-bottom="0"
     units="px"
     inkscape:window-width="1280"
     inkscape:window-height="715"
     inkscape:window-x="0"
     inkscape:window-y="0"
     inkscape:window-maximized="1"
     scale-x="0.5" />
  <metadata
     id="metadata5">
    <rdf:RDF>
      <cc:Work
         rdf:about="">
        <dc:format>image/svg+xml</dc:format>
        <dc:type
           rdf:resource="http://purl.org/dc/dcmitype/StillImage" />
        <dc:title></dc:title>
      </cc:Work>
    </rdf:RDF>
  </metadata>
  <g
     inkscape:groupmode="layer"
     id="layer2"
     inkscape:label="Layer 2"
     style="display:inline"
     transform="translate(208.93553,-68.866493)">
    <g
       aria-label="Ge "
       transform="matrix(4.577298,0,0,4.577298,4388.8551,3316.9042)"
       style="font-style:normal;font-variant:normal;font-weight:bold;font-stretch:normal;font-size:40px;line-height:125%;font-family:'.Helvetica Neue DeskInterface';-inkscape-font-specification:'.Helvetica Neue DeskInterface Bold';letter-spacing:0px;word-spacing:0px;opacity:0.98999999;fill:#ffffff;fill-opacity:1;stroke:#646464;stroke-width:0.436939;stroke-linecap:butt;stroke-linejoin:miter;stroke-opacity:1;stroke-miterlimit:4;stroke-dasharray:none"
       id="flowRoot977">
      <path
         d="m -981.40311,-683.17441 0.65041,3.29268 h 4.06504 v -15.69105 h -12.19512 v 4.75609 h 6.42276 q -0.28455,3.04878 -2.03252,4.6748 -1.70731,1.58537 -4.87805,1.58537 -2.15447,0 -3.65853,-0.81301 -1.50407,-0.85366 -2.43903,-2.23577 -0.93496,-1.38212 -1.38211,-3.08944 -0.4065,-1.74796 -0.4065,-3.57723 0,-1.91057 0.4065,-3.69919 0.44715,-1.78862 1.38211,-3.17073 0.93496,-1.42276 2.43903,-2.23577 1.50406,-0.85366 3.65853,-0.85366 2.31708,0 3.94309,1.21951 1.62602,1.21951 2.19513,3.65854 h 6.09756 q -0.24391,-2.47968 -1.34147,-4.39025 -1.09756,-1.91056 -2.80487,-3.21138 -1.66667,-1.30081 -3.78049,-1.95122 -2.07317,-0.69105 -4.30895,-0.69105 -3.33333,0 -6.01626,1.17886 -2.64227,1.17886 -4.47154,3.25203 -1.82931,2.07317 -2.80491,4.87805 -0.9756,2.76423 -0.9756,6.01626 0,3.17073 0.9756,5.93496 0.9756,2.72358 2.80491,4.7561 1.82927,2.03252 4.47154,3.21138 2.68293,1.13821 6.01626,1.13821 2.11383,0 4.187,-0.85366 2.07317,-0.89431 3.78048,-3.08943 z"
         style="fill:#ffffff;fill-opacity:1;stroke:#646464;stroke-opacity:1;stroke-width:0.436939;stroke-miterlimit:4;stroke-dasharray:none"
         id="path824"
         inkscape:connector-curvature="0" />
      <path
         d="m -957.98276,-692.64595 h -9.39024 q 0.0407,-0.60976 0.2439,-1.38212 0.24391,-0.77236 0.77236,-1.46341 0.56911,-0.69106 1.46342,-1.13821 0.93495,-0.48781 2.31707,-0.48781 2.11382,0 3.13008,1.13821 1.05691,1.13821 1.46341,3.33334 z m -9.39024,3.65853 h 15.1626 q 0.1626,-2.43902 -0.4065,-4.6748 -0.56911,-2.23577 -1.86992,-3.98373 -1.26016,-1.74797 -3.25203,-2.76423 -1.99187,-1.05691 -4.6748,-1.05691 -2.39837,0 -4.39024,0.85366 -1.95122,0.85365 -3.37399,2.35772 -1.42276,1.46341 -2.19512,3.49593 -0.77236,2.03252 -0.77236,4.39025 0,2.43902 0.73171,4.47154 0.77236,2.03252 2.15447,3.49594 1.38212,1.46341 3.37399,2.27642 1.99187,0.77236 4.47154,0.77236 3.57724,0 6.09756,-1.62602 2.52033,-1.62601 3.73984,-5.4065 h -5.0813 q -0.28455,0.97561 -1.54472,1.86992 -1.26016,0.85365 -3.00813,0.85365 -2.43902,0 -3.73984,-1.26016 -1.30081,-1.26016 -1.42276,-4.06504 z"
         style="fill:#ffffff;fill-opacity:1;stroke:#646464;stroke-opacity:1;stroke-width:0.436939;stroke-miterlimit:4;stroke-dasharray:none"
         id="path826"
         inkscape:connector-curvature="0" />
    </g>
    <g
       aria-label="Quiz"
       transform="matrix(4.577298,0,0,4.577298,4385.0188,3472.2362)"
       style="font-style:normal;font-variant:normal;font-weight:bold;font-stretch:normal;font-size:40px;line-height:125%;font-family:'.Helvetica Neue DeskInterface';-inkscape-font-specification:'.Helvetica Neue DeskInterface Bold';letter-spacing:0px;word-spacing:0px;fill:#ffffff;fill-opacity:1;stroke:#646464;stroke-width:0.436939;stroke-linecap:butt;stroke-linejoin:miter;stroke-opacity:1;stroke-miterlimit:4;stroke-dasharray:none"
       id="flowRoot999">
      <path
         d="m -983.27302,-687.6053 q 0.813,-1.09757 1.30081,-2.72358 0.4878,-1.62602 0.4878,-3.94309 0,-1.91057 -0.44715,-3.69919 -0.40651,-1.78862 -1.34146,-3.17073 -0.93496,-1.42276 -2.43903,-2.23577 -1.50406,-0.85366 -3.65854,-0.85366 -2.15447,0 -3.65853,0.85366 -1.50407,0.81301 -2.43903,2.23577 -0.93496,1.38211 -1.38211,3.17073 -0.4065,1.78862 -0.4065,3.69919 0,1.82927 0.4065,3.57723 0.44715,1.70732 1.38211,3.08944 0.93496,1.38211 2.43903,2.23577 1.50406,0.81301 3.65853,0.81301 1.01626,0 1.54472,-0.0813 0.52846,-0.0813 1.01626,-0.32521 l -2.72358,-2.47967 2.96748,-3.17073 z m 0.93495,6.70731 q -2.88617,1.66667 -7.03252,1.66667 -3.33333,0 -6.01626,-1.13821 -2.64227,-1.17886 -4.47154,-3.21138 -1.82931,-2.03252 -2.80491,-4.7561 -0.9756,-2.76423 -0.9756,-5.93496 0,-3.25203 0.9756,-6.01626 0.9756,-2.80488 2.80491,-4.87805 1.82927,-2.07317 4.47154,-3.25203 2.68293,-1.17886 6.01626,-1.17886 3.37399,0 6.01626,1.17886 2.64228,1.17886 4.47155,3.25203 1.82927,2.07317 2.80488,4.87805 0.97561,2.76423 0.97561,6.01626 0,3.17073 -0.97561,5.89431 -0.97561,2.72358 -2.80488,4.79675 l 3.61789,3.29268 -2.96748,3.08943 z"
         style="fill:#ffffff;fill-opacity:1;stroke-width:0.436939;stroke-miterlimit:4;stroke-dasharray:none;stroke:#646464;stroke-opacity:1"
         id="path829"
         inkscape:connector-curvature="0" />
      <path
         d="m -951.6324,-679.88173 v -21.01626 h -5.77236 v 11.01626 q 0,3.21138 -1.05691,4.63415 -1.05691,1.38211 -3.41463,1.38211 -2.07317,0 -2.88618,-1.26016 -0.81301,-1.30081 -0.81301,-3.90244 v -11.86992 h -5.77236 v 12.92683 q 0,1.95122 0.32521,3.57724 0.36585,1.58536 1.21951,2.72357 0.85366,1.09757 2.31707,1.70732 1.50407,0.60976 3.82114,0.60976 1.82927,0 3.57724,-0.81301 1.74796,-0.81301 2.84552,-2.64228 h 0.12196 v 2.92683 z"
         style="fill:#ffffff;fill-opacity:1;stroke-width:0.436939;stroke-miterlimit:4;stroke-dasharray:none;stroke:#646464;stroke-opacity:1"
         id="path831"
         inkscape:connector-curvature="0" />
      <path
         d="m -941.27226,-704.15002 v -4.7561 h -5.77236 v 4.7561 z m -5.77236,3.25203 v 21.01626 h 5.77236 v -21.01626 z"
         style="fill:#ffffff;fill-opacity:1;stroke-width:0.436939;stroke-miterlimit:4;stroke-dasharray:none;stroke:#646464;stroke-opacity:1"
         id="path833"
         inkscape:connector-curvature="0" />
      <path
         d="m -938.03928,-684.23132 v 4.34959 h 19.30894 v -4.34959 h -11.70732 l 10.93496,-12.31707 v -4.3496 h -17.72358 v 4.3496 h 10.12195 z"
         style="fill:#ffffff;fill-opacity:1;stroke-width:0.436939;stroke-miterlimit:4;stroke-dasharray:none;stroke:#646464;stroke-opacity:1"
         id="path835"
         inkscape:connector-curvature="0" />
    </g>
  </g>
</svg>
