<?xml version="1.0" encoding="UTF-8" standalone="no"?>
<!-- Created with Inkscape (http://www.inkscape.org/) -->

<svg
   xmlns:dc="http://purl.org/dc/elements/1.1/"
   xmlns:cc="http://creativecommons.org/ns#"
   xmlns:rdf="http://www.w3.org/1999/02/22-rdf-syntax-ns#"
   xmlns:svg="http://www.w3.org/2000/svg"
   xmlns="http://www.w3.org/2000/svg"
   xmlns:sodipodi="http://sodipodi.sourceforge.net/DTD/sodipodi-0.dtd"
   xmlns:inkscape="http://www.inkscape.org/namespaces/inkscape"
   width="507.55215"
   height="508.4404"
   viewBox="0 0 134.28984 134.52486"
   version="1.1"
   id="svg8"
   inkscape:version="0.92.2 5c3e80d, 2017-08-06"
   sodipodi:docname="globe.svg">
  <defs
     id="defs2" />
  <sodipodi:namedview
     id="base"
     pagecolor="#ffffff"
     bordercolor="#666666"
     borderopacity="1.0"
     inkscape:pageopacity="0.0"
     inkscape:pageshadow="2"
     inkscape:zoom="0.30044248"
     inkscape:cx="-816.04913"
     inkscape:cy="38.636016"
     inkscape:document-units="mm"
     inkscape:current-layer="layer2"
     showgrid="false"
     inkscape:lockguides="false"
     fit-margin-top="0"
     fit-margin-left="0"
     fit-margin-right="0"
     fit-margin-bottom="0"
     units="px"
     inkscape:window-width="1280"
     inkscape:window-height="715"
     inkscape:window-x="0"
     inkscape:window-y="0"
     inkscape:window-maximized="1" />
  <metadata
     id="metadata5">
    <rdf:RDF>
      <cc:Work
         rdf:about="">
        <dc:format>image/svg+xml</dc:format>
        <dc:type
           rdf:resource="http://purl.org/dc/dcmitype/StillImage" />
        <dc:title></dc:title>
      </cc:Work>
    </rdf:RDF>
  </metadata>
  <g
     inkscape:groupmode="layer"
     id="layer2"
     inkscape:label="Layer 2"
     style="display:inline"
     transform="translate(-39.257194,-77.719253)">
    <g
       id="g956"
       transform="translate(-2.6419378,-29.501626)">
      <ellipse
         ry="67.262428"
         rx="67.14492"
         cy="174.48331"
         cx="109.04405"
         id="path941"
         style="opacity:1;fill:#00b1ff;fill-opacity:1;fill-rule:nonzero;stroke:none;stroke-width:0.63491958;stroke-linecap:square;stroke-linejoin:round;stroke-miterlimit:4;stroke-dasharray:none;stroke-dashoffset:0;stroke-opacity:1" />
      <path
         id="path915"
         transform="scale(0.26458333)"
         d="m 396.48242,417.9082 c -6.36589,0.0737 -22.26771,8.42011 -30.21094,10.90235 -9.41421,2.94194 -15.59302,6.17817 -15.29882,10.29687 6.17806,0.5884 4.78588,7.49268 2.06054,12.94336 -2.94194,5.88389 -11.30985,3.63342 -2.94336,5.88477 8.36649,2.25135 0.58846,14.41573 -4.70703,18.24023 -5.29549,3.82454 -12.94297,6.76719 -6.4707,15.29883 -10.29679,13.23874 15.88672,17.0625 15.88672,17.0625 7.64904,7.06065 13.8264,5.88374 14.70898,-5.58984 0.88258,-11.47355 5.58952,-11.76748 11.76758,-18.82813 6.17809,-7.06065 13.23897,-1.17662 15.88672,-11.76758 2.64775,-10.59099 9.41345,-7.64981 17.0625,-12.94531 7.64905,-5.2955 -0.29409,-6.47117 -4.70703,-5.88281 -4.41286,0.58839 -1.47081,-1.7661 5.58984,-3.53125 3.82454,-2.64775 -18.53309,-4.11788 -10.58984,-6.76563 7.94309,-2.64775 4.41171,-9.12012 0.29297,-10.29687 -4.11871,-1.1768 -3.23507,-10.00239 -5.88282,-14.1211 -0.41371,-0.64355 -1.26644,-0.91403 -2.44531,-0.90039 z m 136.06446,17.84961 c 1.42508,1.02905 2.79995,2.0027 3.95312,2.77149 2.97997,1.98663 6.71196,3.85598 10.1582,5.73242 a 253.77608,254.2202 0 0 0 -14.11132,-8.50391 z m -250.85743,5.95508 a 253.77608,254.2202 0 0 0 -123.33007,217.75195 253.77608,254.2202 0 0 0 0.21679,6.15235 l 0.46094,0.0762 1.55859,-9.36133 c 0,0 1.66476,26.003 4.78516,30.68359 3.12039,4.68061 8.32159,12.27337 10.50586,13.10547 2.18428,0.8321 2.07944,-1.97481 3.84766,0.52149 1.76822,2.49634 2.18409,6.96843 7.38476,10.29687 5.20066,3.32844 9.46561,5.71975 11.75391,10.81641 2.28829,5.09665 3.95237,7.28239 6.96875,10.71484 3.01638,3.43242 8.42606,7.38398 10.81836,5.09571 2.3923,-2.28832 5.61569,-2.49556 5.92773,2.28906 0.31204,4.78462 -2.80845,0.62281 -4.47266,3.53515 -1.66422,2.9124 -5.40732,10.92316 -4.36718,12.69141 1.04013,1.76822 6.55245,14.24894 4.16015,15.28906 -2.39231,1.04013 -2.39323,10.71407 -0.625,14.14649 1.76822,3.43245 3.53722,0.83069 2.28907,5.19922 -1.24817,4.36856 6.24135,10.60998 10.08984,14.5625 3.84849,3.95248 11.02459,12.69009 14.45703,16.22656 3.43244,3.53643 6.34426,8.32017 11.54492,9.98437 5.20066,1.66421 9.88184,3.7459 15.39453,11.54688 5.51271,7.80098 10.09001,14.35256 13.73047,19.44922 3.64047,5.09665 12.79383,16.85055 19.55469,22.77929 6.74965,5.91893 14.42847,9.55481 18.80078,11.94727 a 253.77608,254.2202 0 0 0 17.65625,6.05469 c -3.87482,-2.09793 -6.83727,-4.28953 -7.54297,-6.45703 -1.45619,-4.47258 3.64185,-5.82441 0.9375,-9.46485 -2.70434,-3.64048 2.91165,-2.80743 2.59961,-10.40039 -0.31204,-7.59299 5.2004,-3.53701 2.91211,-10.08984 -2.28829,-6.55283 5.61738,-11.12996 8.8418,-10.08985 3.22441,1.04013 9.25674,-1.03964 10.29687,-10.71289 1.04013,-9.67321 -3.32868,-12.06474 2.91211,-19.3457 6.2408,-7.28092 10.40222,-12.06694 6.34571,-16.85156 -4.05653,-4.78458 -11.75506,-4.05682 -15.1875,-7.28125 -3.43244,-3.22439 -8.63206,-2.28807 -11.64844,-2.4961 -3.01639,-0.20786 -4.99324,-4.36753 -9.67383,-0.62304 -2.49632,-4.16054 -7.17637,-7.80231 -11.54492,-7.49024 -4.36857,0.31219 -13.00199,1.04151 -12.58594,-4.36718 0.41605,-5.4087 -11.75273,-16.43442 -14.04101,-18.30664 -2.28829,-1.87227 -18.09839,-3.01667 -20.80274,-7.69727 -2.70434,-4.68057 -7.59349,-5.40912 -10.50586,-5.61719 1.76823,-1.04012 2.60039,-7.59229 -6.13672,-7.48828 -8.73711,0.10394 -15.39312,-1.35267 -20.17773,-5.20117 -4.78461,-3.84847 -10.71386,-1.5603 -10.92188,-4.47266 -0.20802,-2.91239 -5.82587,-7.27997 -9.15429,-5.51172 -3.32842,1.76822 -11.96048,-7.07377 -11.64844,-17.78711 0.10401,-3.53645 -1.14473,-9.4653 -4.36914,-9.77734 -3.22441,-0.31219 -9.77696,1.03959 -8.63281,-4.78516 1.14415,-5.82473 -1.9e-4,-11.23161 2.08007,-15.08007 2.08027,-3.84851 -7.59271,-5.41005 -8.21679,-1.35352 -0.62408,4.05649 -4.47183,11.75471 -8.32032,3.01758 -3.84848,-8.7371 -5.82636,-27.87561 -3.74609,-32.24414 2.08026,-4.36857 3.43239,-12.37876 11.44141,-8.32227 8.00902,4.05653 4.57705,-1.14346 5.61718,-2.18359 3.74448,-0.10394 8.94624,1.55987 9.57032,3.32812 0.62408,1.76822 3.74357,-1.0403 4.67968,1.66407 0.93613,2.70432 1.24851,4.05679 1.56055,8.11328 0.31204,4.05653 3.43249,11.96236 4.88867,12.48242 1.45619,0.52006 2.18325,-6.03442 0.62305,-14.35547 -1.5602,-8.32104 2.5e-4,-19.0326 8.11328,-20.38476 8.11304,-1.35221 11.8575,-8.73808 11.02539,-11.23438 -0.83211,-2.49634 0.41747,-13.93778 0.52149,-11.02539 0.10401,2.91235 1.97553,7.69669 2.59961,3.32812 0.62407,-4.36851 2.80803,-3.01694 3.74414,-4.78515 0.93612,-1.76825 0.1042,-5.40859 3.22461,-6.13672 3.12038,-0.72809 11.75294,-1.55934 11.54492,-4.26367 -0.20803,-2.70437 0.41746,-6.65753 6.24218,-8.42578 5.82474,-1.76822 13.52027,-5.82333 16.22461,-4.78321 2.70434,1.04013 1.56046,-0.83383 -2.91211,2.80664 -4.47255,3.64048 -3.74379,3.43296 -2.18359,5.20118 1.5602,1.76821 5.19949,-3.63917 7.5918,-3.53516 2.3923,0.10394 9.9869,-1.8734 9.05078,-3.43359 -0.93612,-1.56023 -4.57741,-2.91208 -7.17773,-3.32813 -2.60034,-0.41605 -4.36826,-3.53686 -3.32813,-6.0332 1.04013,-2.4963 -4.88936,-3.53658 -2.70508,-4.05664 2.18428,-0.5201 8.63404,-1.97596 5.92969,-3.32813 -2.70434,-1.35216 -14.12156,-1.35641 -20.89453,6.39453 0,0 8.53123,-13.38511 25.88867,-12.35547 17.35744,1.0297 29.125,-4.41366 29.125,-7.79687 0,-3.38324 -3.23546,-10.00202 -12.35547,-5.29492 8.97291,-4.8542 10.59072,-6.91357 1.4707,-7.50195 -1.17677,-4.7071 -5.14822,-5.8834 -1.91211,-8.08985 3.23613,-2.20645 -1.17659,-18.68106 -4.26562,-16.47461 -3.08904,2.20645 -19.12228,13.23773 -13.67969,1.17578 2.20646,-5.00129 2.64657,-6.76671 -2.06054,-8.38476 -0.58838,-6.47229 -9.85444,-9.5617 -13.38477,-4.11914 -3.53033,5.44259 -11.32766,12.50394 -9.5625,17.65234 1.76516,5.1484 -6.0313,13.09144 -11.17969,14.12109 -2.20645,5.1484 -1.91227,15.44604 -7.50195,15.74024 -5.58969,0.29405 -0.44045,-14.26849 0.73633,-17.79883 -5.44259,-3.08901 -7.06135,-6.32621 -10.15039,-11.47461 -3.08904,-5.1484 -4.41205,-11.61918 0.73632,-16.76758 5.14841,-5.14839 29.85993,-22.35959 34.41993,-23.24218 4.56001,-0.88256 10.15032,-4.41266 14.85742,-8.97266 4.70711,-4.56 5.73698,-5.29662 3.23633,-6.76758 -2.50066,-1.47099 -2.35382,2.64902 -6.03125,4.85547 -3.67742,2.20645 -11.62045,5.4422 -6.61914,1.0293 5.00129,-4.4129 -0.88273,-5.5888 1.91211,-9.11914 2.79484,-3.53035 8.82651,-10.44513 2.64843,-7.20899 -6.17808,3.23611 -5.00115,8.82661 -9.41406,10.5918 -4.41291,1.76515 -11.62144,6.61809 -12.94531,2.64648 -1.32387,-3.97164 -7.20817,-6.47229 -4.11914,-7.50195 3.08904,-1.02969 7.50134,-2.50015 7.64844,-0.14648 0.14708,2.35355 3.9719,1.47149 6.03124,-0.14649 2.05936,-1.61809 2.64887,-5.0008 6.76758,-8.08984 4.11872,-3.08905 11.768,-10.44427 8.38477,-8.82617 -3.38323,1.61805 -8.97381,7.35383 -5.88477,3.52929 3.08903,-3.8245 5.8834,-7.7964 8.08985,-8.38476 2.20646,-0.5884 2.94225,-1.02865 3.67773,-3.5293 0.081,-0.27527 -0.19955,-0.47993 -0.73633,-0.63086 z m 267.39649,6.22852 c -0.78007,-0.10407 1.3e-4,0.67598 4.05664,3.90039 -1.04013,1.87222 -1.66424,1.03984 0.41601,3.32812 -3.74445,-1.87222 -4.36928,-2.1e-4 -2.70507,2.08008 1.6642,2.08025 4.16068,7.28256 -1.66407,3.74609 -5.82478,-3.53642 -6.03163,-2.4974 -1.45507,1.03907 4.57658,3.53642 3.32699,6.24105 5.19921,8.11328 1.87223,1.87222 2.08153,3.32819 -3.11914,2.49609 -1.04016,1.66424 11.4404,7.28057 0.62305,4.16016 -10.81739,-3.12042 -8.11269,-8.11211 -14.76953,-9.98438 9.15318,2.49634 11.65035,3.32844 12.06641,0 0.41604,-3.3284 -9.36145,-9.3614 -18.72266,-8.52929 -9.36117,0.8321 -8.94479,-5.82422 -14.76953,-5.82422 -5.82475,0 -13.93939,2.28794 -14.77149,14.76953 -0.8321,12.48162 -1.8706,16.01805 -7.27929,21.63476 -5.4087,5.61672 -3.74453,11.02494 0.41601,16.01758 4.16054,4.99261 8.31979,9.77736 14.56055,-1.66406 3.12041,4.36853 7.07308,7.282 8.94531,9.98633 1.87223,2.70433 6.24191,8.11239 9.1543,7.07226 2.91235,-1.04012 4.78423,-2.70472 4.16015,-6.44922 -0.62407,-3.74445 -1.24794,-5.40802 -2.49609,-7.48828 1.24815,-1.24815 4.78444,-5.41001 2.08008,-7.07422 -2.70433,-1.66423 -5.61811,-2.28704 -6.24219,-3.11914 -1.6642,-2.4963 -4.57546,-7.48889 -1.87109,-11.4414 2.70433,-3.95248 1.24704,-5.61702 -0.20899,-7.69727 -1.45617,-2.08025 7.5e-4,-3.74428 2.70508,-2.49609 2.70437,1.24815 6.65639,-0.41569 4.99219,6.44922 -1.6642,6.86487 -0.41523,7.69621 1.87305,8.73632 2.28831,1.04013 6.44804,7.07312 8.32031,8.11329 1.87222,1.04012 8.94606,-3.95316 11.23437,-3.53711 2.28828,0.41605 6.03277,3.12091 0,4.78515 -6.03277,1.6642 -7.28064,1.66368 -3.32812,5.82422 3.95251,4.16051 3.32758,5.8244 -1.45703,4.16016 -4.78462,-1.6642 -1.66435,3.95364 1.24804,9.15429 -2.4963,1.66421 -3.32816,2.91191 -2.91211,5.40821 -5.20063,-1.6642 -10.71307,0.62479 -13.9375,3.12109 -4.57659,-2.28828 -7.59259,-2.39313 -9.88085,0.20703 -2.28832,-1.87222 -5.40956,-0.31134 -6.76172,-4.26367 -1.35221,-3.95252 1.03949,-5.41012 1.76757,-5.82617 -1.56022,-1.24819 -4.15919,-1.55988 -3.95117,-3.74414 0.20788,-2.18427 -1.87297,-2.49672 -2.70508,0.10351 -0.8321,2.60036 -3.63984,2.80978 -1.35156,6.24219 2.28832,3.43246 7.48927,8.11169 1.97656,9.67188 -5.5127,1.56019 -8.84112,1.97685 -11.02539,9.67383 -3.95251,1.14412 -9.88224,8.00863 -10.81836,9.88085 -2.60031,-0.20787 -4.16008,-0.31158 -4.99218,-1.35156 -0.8321,-1.04012 -2.49631,1.45576 0,4.57617 -3.53643,-0.20787 -9.67316,-1.45585 -11.44141,1.56055 0.93611,2.08025 2.39248,3.84911 8.94531,3.95313 0.62408,1.56022 3.01634,4.05603 5.72071,5.4082 0.41605,3.0164 1.45617,9.25757 0,12.16992 -3.43246,-0.20787 -4.57742,-0.52091 -7.17774,0.20703 -2.60035,0.72813 -7.488,-1.45606 -10.8164,-1.24805 -3.32845,0.20788 -8.00935,-0.5202 -7.69727,1.66407 -2.28831,0 -4.78437,0.10362 -2.49609,3.32812 2.28827,3.22443 2.39229,8.11336 0.41601,12.58594 -1.97624,4.47258 -0.52066,5.82521 1.35156,5.61719 -0.20787,1.76821 0.52038,3.84898 0.3125,5.61718 1.97624,0.10394 7.3845,-3.01597 10.71289,1.14454 3.32845,4.16054 3.95328,1.66313 8.00977,-0.20899 4.05653,-1.87222 6.96758,-1.24858 9.25586,-0.72851 1.14414,-1.14414 2.28832,-3.32859 4.88867,-3.64063 -0.10394,-1.56019 0.52078,-3.9516 3.1211,-4.67969 -2.08026,-2.28831 -2.70494,-5.20138 0.93554,-8.00976 3.64044,-2.80834 0.41624,-2.18349 3.64063,-3.43164 3.22443,-1.24815 5.40969,-1.66382 5.09765,-4.16016 -0.31219,-2.4963 -0.83181,-6.03274 2.39258,-5.7207 3.22443,0.31219 5.61598,2.39165 7.9043,1.76758 2.28828,-0.62408 6.4497,-9.25806 12.0664,-6.34571 5.61672,2.91239 5.40825,7.1781 10.29688,8.73828 4.88859,1.56019 10.81673,4.78506 12.37695,6.03321 1.56019,1.24815 6.76183,3.84734 5.51367,7.17578 -1.24817,3.32844 1.14397,4.26544 2.08008,1.04101 0.93612,-3.22439 2.60001,-3.0168 -0.3125,-6.0332 -2.91239,-3.01636 0.83239,-3.1202 2.39258,-2.08008 1.56023,1.04013 2.70362,1.4566 2.59961,-0.10351 -0.10394,-1.56019 -11.64861,-4.57753 -9.56836,-5.92969 2.08025,-1.35216 -3.12092,0.20798 -5.20117,-1.24805 -2.08025,-1.45621 -13.10557,-9.56861 -11.85742,-12.37695 1.24819,-2.80838 3.95299,-1.2478 5.61718,1.14453 1.66421,2.39229 1.14333,-2.8098 3.43165,-0.52148 2.28827,2.28827 4.99276,5.8256 9.77734,6.76172 4.78462,0.93611 8.73662,5.51172 11.12891,10.8164 2.39232,5.30464 5.9294,7.90579 8.84179,7.59375 2.91236,-0.31219 5.30494,0.62447 2.8086,1.14453 -2.49631,0.52007 -4.3685,1.76876 -0.83203,4.78516 3.53641,3.01636 3.95124,0.31091 3.11914,-1.76953 1.56018,-0.20788 0.41686,-3.11918 1.45703,-2.70313 1.04012,0.41605 2.39187,-1.04094 0.10351,-1.87304 -2.28831,-0.8321 -4.7843,-3.43168 -3.32812,-3.01563 1.45617,0.41605 -3.74382,-6.34584 -1.76758,-5.09765 1.97624,1.24814 4.57678,1.76828 3.64062,-0.41602 -0.93611,-2.18427 6.96726,-4.05688 7.2793,-1.14453 0.31219,2.91239 0.0493,4.61872 2.25586,3.07422 0.29405,2.50065 2.28088,5 0.29492,5 -1.98584,0 2.50026,1.69188 3.38282,3.45703 0.88258,1.76519 -0.51494,2.20578 2.13281,2.2793 2.64771,0.0733 3.53013,10e-4 4.26562,1.61914 0.73546,1.61805 4.04492,0.6625 4.04492,-0.36719 0,-1.0297 -1.39671,-2.64878 2.64844,-1.39844 4.04515,1.25031 5.36878,0.80951 6.39844,-0.58789 1.02969,-1.39744 2.79514,0.1467 3.67773,-1.32422 0.5884,0.7355 0.4411,1.39784 1.69141,4.11914 1.25034,2.72126 2.13306,13.38512 0.66211,17.2832 -1.47099,3.89806 -4.70823,3.1638 -6.76758,2.28126 -2.05935,-0.8826 -3.89701,1.2496 -5.88281,2.27929 -1.9858,1.02966 -9.26796,-1.32333 -13.16602,-0.36719 -1.39744,-1.9858 -0.88182,-1.47204 -4.63281,-1.61914 -3.75095,-0.14702 -8.45844,-0.51377 -11.40039,-0.29296 -1.02969,2.79483 0.51584,10.66368 -6.10352,9.11914 -6.61938,-1.54451 -8.67925,-3.08971 -12.0625,-5.00196 -3.3832,-1.91225 -4.70779,-4.92701 -10.15039,-4.63281 -5.44255,0.29405 -12.64975,-0.95602 -10.22265,-4.48633 2.4271,-3.53034 -0.51501,-5.58981 -0.66211,-7.94336 -0.14703,-2.35355 2.86935,-2.50056 -1.39649,-2.13281 -1.76515,-1.91225 -1.39893,-2.5002 -5.73828,-0.80859 -4.33935,1.69164 -8.97322,0.88144 -16.10742,3.08789 -7.1342,2.20645 -11.6201,-1.69178 -17.72461,4.26562 -2.20649,0.14703 -9.12039,4.34015 -11.40039,3.08985 -2.28,-1.25035 -10.66365,-0.51549 -11.47266,-2.42774 -1.39744,1.6916 -11.69395,13.68027 -14.12109,15.88672 -2.4271,2.20641 -3.01669,4.26585 -2.06055,7.50195 0.95611,3.23615 -1.25018,4.41381 -4.48632,5.88477 -3.23611,1.47095 -6.83848,2.27932 -9.04493,4.85351 -2.20645,2.5742 -10.51749,15.07708 -12.65039,18.60743 -2.1329,3.5303 -4.78192,6.83991 -4.85547,9.63476 1.54451,1.25031 4.2663,1.84039 4.33985,6.40039 0.0737,4.56 1.76429,14.63582 -5.66406,18.60742 1.6916,2.20649 5.00142,4.04511 3.01562,7.28125 -1.9858,3.23611 2.86889,4.63282 4.33984,4.63282 1.471,0 3.38296,0.0733 1.47071,2.35351 1.9858,1.76516 9.26775,6.62045 9.92968,9.1211 0.66195,2.50065 2.35298,4.26416 5.29493,6.25 2.94194,1.9858 15.22494,10.15039 18.90234,10.15039 3.67744,0 16.47561,-4.19253 20.22656,-3.45703 3.75096,0.73545 14.63615,-0.29284 19.93164,-2.86719 5.2955,-2.5742 7.64785,-4.63363 10.36914,-2.79492 2.72126,1.8387 4.41345,1.98501 4.56055,4.41211 0.14702,2.42709 4.26554,3.08834 6.39844,2.27929 2.1329,-0.80901 5.95739,-2.64672 7.28125,-0.95508 1.32389,1.69161 4.4873,2.05898 3.31055,5.95704 -1.1768,3.89809 -3.09015,7.05984 -1.83985,9.33984 -1.2503,1.61809 -5.4423,4.78232 -1.4707,8.97461 3.97164,4.19225 8.67804,7.13249 9.78125,13.31055 1.10324,6.17809 1.39886,6.61992 0.14844,9.48828 -1.25031,2.86839 -0.22176,8.60599 -1.39844,10.59179 -1.17679,1.98581 -5.8099,6.3976 -8.31055,10.58985 -2.50065,4.19225 -3.38276,5.29684 -3.16211,7.65039 0.22073,2.35355 3.8971,5.80967 3.75,12.35547 -0.14702,6.5458 -0.51395,7.35404 -1.61718,9.33984 -1.10321,1.9858 -1.69213,4.92823 -0.0742,9.26758 1.61809,4.33939 0.51464,9.19378 -0.66211,10.73828 -1.1768,1.5445 -4.33858,6.54595 0.51562,5.58984 0,0 13.82658,-1.17766 20.29883,-5.88476 6.47229,-4.7071 28.83092,-22.064 39.42188,-35.30274 10.59098,-13.2387 5.59093,-9.7079 14.71093,-17.94531 9.12004,-8.23744 13.8274,-23.53625 13.53321,-32.65625 -0.29405,-9.12 19.12225,-30.88994 23.53515,-40.89258 4.41294,-10.00255 10.88549,-25.59455 11.17969,-36.18554 -5.5897,3.82454 -10.29807,12.35604 -12.35742,7.06054 -2.05939,-5.29546 -10.0016,-22.06443 -16.17969,-39.42187 -6.17805,-17.35744 -12.6502,-29.71394 -7.06055,-23.83008 5.5897,5.88389 13.82661,20.00566 17.94532,34.12695 4.1187,14.12134 3.52945,28.24189 11.47265,17.0625 7.024,-9.88559 13.11797,-28.49745 13.62305,-38.98242 a 253.77608,254.2202 0 0 0 -0.74219,-6.12109 c -2.00547,-3.70122 -7.25126,5.06235 -13.17383,-9.61524 -6.76645,-16.76908 -2.94298,-14.41536 0.29297,-9.41406 2.27033,3.50867 7.86453,8.88209 11.81836,10.26367 A 253.77608,254.2202 0 0 0 552.86328,448.07422 c 0.55707,0.41942 1.07439,0.84237 1.52734,1.27148 -2.18425,-0.31203 -4.52461,-1.30023 -5.30468,-1.40429 z m -252.78125,6.26757 c -4.22519,-0.15141 -14.085,10.32837 -15.9375,14.31836 -1.91227,4.11874 13.82724,0.29392 15.44531,8.97266 1.61806,8.6787 -6.4726,12.94477 -6.25195,13.0918 0,0 -5.66264,2.49982 -12.57617,4.41211 -6.91356,1.91225 1.76432,3.67773 6.76562,3.67773 5.00129,0 -1.91298,5.44181 7.20703,11.91406 9.12001,6.47229 3.97171,-2.35313 2.79492,-5.73632 -1.17678,-3.38325 7.20929,3.67838 10.88672,1.17773 3.67742,-2.50065 -5.88457,-8.82596 -2.64844,-13.0918 3.23613,-4.2658 5.44261,1.32394 7.50196,5.14844 2.05936,3.82454 12.79667,-7.20898 9.56054,-7.20898 -3.23614,0 -4.70711,-5.58887 -7.50195,-6.76563 -2.79484,-1.17679 -1.02922,-4.56142 1.76563,-4.85547 2.79484,-0.2942 2.0595,-3.96983 -1.91211,-3.67578 -3.97162,0.2942 -1.61822,-2.35377 1.91211,-3.23633 3.53032,-0.88259 -2.49959,-3.97291 -5.88282,-4.85547 -3.38323,-0.88259 2.35183,-2.50007 0.88086,-5.29492 -1.47097,-2.79477 -6.03011,0.58901 -9.11914,-0.14648 4.41291,-2.50065 6.32418,-6.91381 1.17578,-6.03125 -5.14839,0.88259 -11.17904,8.8257 -13.67968,9.41406 -2.50065,0.5884 7.79745,-8.82614 10.0039,-11.17969 -0.12411,-0.0276 -0.25433,-0.0439 -0.39062,-0.0488 z m 169.3789,55.36524 c -0.6526,0.0411 -1.55055,0.25459 -2.7207,0.72266 -4.1605,1.66419 -3.43174,5.92905 -2.18359,7.69726 1.24815,1.76821 0.72777,5.20088 3.32812,2.80859 0.8321,3.01637 -1.24903,7.38598 4.26367,5.09766 0.8321,1.76825 2.39347,2.91165 3.4336,2.59961 0.52006,2.80834 1.66377,4.05561 -0.72852,4.26367 -2.39233,0.20788 -3.64076,0.72937 -1.97656,2.18555 0.62407,1.04012 -5.72066,4.16062 -0.83203,4.47266 4.88863,0.31217 6.44896,-0.10508 3.64062,1.87109 -2.80837,1.97624 -8.52925,6.34488 -3.64062,4.47265 4.88863,-1.87225 9.56836,-1.66406 9.56836,-1.66406 0,0 10.61022,-1.14435 11.65039,-3.22461 1.04012,-2.08029 -3.8489,-1.8e-4 -0.72852,-3.22461 3.12042,-3.22439 -0.31138,-5.30436 -3.84765,-3.74414 -2.08029,-3.12041 -4.16134,-6.96768 -7.59375,-8.00781 -2.60036,-3.64044 -4.16084,-5.20167 -7.28125,-5.09766 1.45617,-2.39229 2.91267,-4.36892 1.97656,-6.44921 0,0 -9.4652,0.31341 -5.7207,-3.11914 0.97511,-0.65008 1.05678,-1.50428 -0.0352,-1.64649 -0.16379,-0.0213 -0.35473,-0.0274 -0.57227,-0.0137 z m -6.33984,14.84961 c -0.23375,-0.0125 -0.48347,-0.006 -0.75,0.0195 -4.26452,0.41605 -6.44879,0.10469 -5.7207,2.70508 -1.97624,1.45621 -1.03925,1.76811 -4.67969,1.24804 -0.8321,2.91236 -1.35195,4.99123 2.80859,4.78321 -1.04012,1.66424 1.55941,1.97735 -2.28906,4.26562 -3.8485,2.28832 0.20795,3.6402 4.88867,2.91211 0,0 5.09642,-2.393 7.80078,-3.12109 2.70433,-0.72809 0.41708,-6.34418 -0.62304,-7.07227 1.95023,-1.26765 2.07072,-5.55244 -1.43555,-5.74023 z m -149.95898,40.28711 c -2.97629,-0.17297 -12.85192,14.24029 -13.72071,13.99218 0,0 7.06212,1.32202 15.59375,2.79297 8.53162,1.471 7.79596,-7.79438 4.26563,-7.9414 -3.53033,-0.1471 -5.44398,0.7356 -5.29688,-7.06055 0.023,-1.21814 -0.29063,-1.75117 -0.84179,-1.7832 z m 217.45117,10.75195 c -0.2172,0 -0.48544,0.11368 -0.81641,0.37109 -2.64775,2.05936 -0.29567,4.26585 1.32227,5.14844 0,0 1.01453,-5.51953 -0.50586,-5.51953 z m 1.22656,7.5 c -0.17993,-0.006 -0.37,0.0184 -0.57227,0.0781 -3.23614,0.9561 -2.35376,5.29667 -0.88281,6.98828 1.47096,1.6916 3.82371,1.76464 4.41211,0.58789 0,-0.55162 -0.25813,-7.56731 -2.95703,-7.6543 z m 25.39062,10.22852 c 0,0 -2.796,0.44028 -4.41406,1.17578 -1.61805,0.73549 -7.72227,-1.69066 -6.17773,1.17773 1.5445,2.8684 12.94478,3.97141 10.95898,1.69141 -1.9858,-2.28 -0.36719,-4.04492 -0.36719,-4.04492 z m -347.65234,85.23632 c -4.62953,0.10663 -7.99177,1.0719 -5.16016,3.38868 0,0 9.85528,-1.61715 14.1211,3.53125 4.26581,5.14839 3.97147,8.38487 9.41406,8.82617 5.44259,0.44126 5.14839,-2.795 0,-5.58985 -5.14839,-2.79484 -10.73844,-10.00329 -16.32812,-10.15039 -0.69872,-0.0184 -1.38552,-0.0211 -2.04688,-0.006 z m 30.01758,16.46289 c -1.79335,0.11152 -1.97148,1.03029 -1.19922,2.96094 1.17678,2.94195 -7.50115,1.32336 -4.41211,2.94141 3.08903,1.61805 10.29688,2.79492 10.29688,2.79492 0,0 6.32479,-0.7355 8.53125,0 2.20645,0.7355 -3.38297,-7.20859 -8.97266,-8.23828 -1.39742,-0.25741 -2.51081,-0.41336 -3.375,-0.45703 -0.32407,-0.0164 -0.61295,-0.0179 -0.86914,-0.002 z"
         style="fill:#00e258;fill-opacity:1;fill-rule:evenodd;stroke:none;stroke-width:0.99999994px;stroke-linecap:butt;stroke-linejoin:miter;stroke-opacity:1"
         inkscape:connector-curvature="0" />
    </g>
  </g>
</svg>
